<svg width="1280" height="427" viewBox="0 0 1280 427" fill="none" xmlns="http://www.w3.org/2000/svg">
<g clip-path="url(#clip0)">
<rect width="1280" height="427" fill="#1A2A34"/>
<path d="M853.714 411.369L855.095 424.222L869.432 422.968L870.813 435.82L885.15 434.566L886.531 447.418" stroke="#E25C5D" stroke-width="8" stroke-linecap="round" stroke-linejoin="round"/>
<path d="M640.877 434.974L628.104 432.985L625.609 447.158L612.836 445.17L610.341 459.343L597.569 457.355" stroke="#E25C5D" stroke-width="8" stroke-linecap="round" stroke-linejoin="round"/>
<path d="M444.34 454.987C439.774 455.943 435.017 455.888 430.483 454.825C425.949 453.763 421.773 451.726 418.316 448.89C414.86 446.054 412.227 442.505 410.645 438.55C409.064 434.595 408.582 430.353 409.24 426.19" stroke="#F7B93E" stroke-width="8"/>
<path d="M975.852 410.718C973.582 401.875 979.74 393.046 989.606 391C999.473 388.954 1009.31 394.464 1011.58 403.308C1013.85 412.151 1007.7 420.98 997.829 423.026C987.962 425.073 978.123 419.562 975.852 410.718Z" stroke="#F7B93E" stroke-width="8"/>
<ellipse rx="18.2454" ry="16.5324" transform="matrix(-0.979161 0.203086 -0.248681 -0.968585 770.916 430.279)" stroke="#F7B93E" stroke-width="8"/>
<ellipse rx="18.2454" ry="16.5324" transform="matrix(-0.979161 0.203086 -0.248681 -0.968585 167.588 235.755)" stroke="#E25C5D" stroke-width="8"/>
<ellipse rx="18.2454" ry="16.5324" transform="matrix(-0.979161 0.203086 -0.248681 -0.968585 806.976 312.718)" stroke="#3D81F5" stroke-width="8"/>
<ellipse rx="7.43475" ry="8.02882" transform="matrix(-0.425493 -0.904962 0.935143 -0.35427 1133.55 369.588)" fill="#F7B93E"/>
<ellipse rx="17.6043" ry="17.2135" transform="matrix(0.80553 -0.592555 0.674922 0.737889 1109.82 163.781)" stroke="#C53DC5" stroke-width="8"/>
<ellipse rx="16.8764" ry="17.9278" transform="matrix(-0.51706 -0.855949 0.899283 -0.437367 2.76691 182.159)" stroke="#F7B93E" stroke-width="8"/>
<ellipse rx="16.8764" ry="17.9278" transform="matrix(-0.51706 -0.855949 0.899283 -0.437367 1278.28 27.4608)" stroke="#E25C5D" stroke-width="8"/>
<ellipse rx="16.8764" ry="17.9278" transform="matrix(-0.51706 -0.855949 0.899283 -0.437367 522.808 348.277)" stroke="#E25C5D" stroke-width="8"/>
<ellipse rx="7.97656" ry="7.49079" transform="matrix(-0.9093 -0.416141 0.495409 -0.86866 306.963 257.569)" fill="#F7B93E"/>
<ellipse rx="7.97656" ry="7.49079" transform="matrix(-0.9093 -0.416141 0.495409 -0.86866 414.835 365.333)" fill="#E25C5D"/>
<ellipse rx="7.88712" ry="7.58491" transform="matrix(0.85442 0.519583 -0.603679 0.797227 1266.45 213.623)" fill="#C53DC5"/>
<ellipse rx="7.88712" ry="7.58491" transform="matrix(0.85442 0.519583 -0.603679 0.797227 934.072 395.036)" fill="#C53DC5"/>
<ellipse rx="18.2648" ry="16.511" transform="matrix(0.983754 -0.179521 0.220187 0.975458 282.919 396.777)" stroke="#C53DC5" stroke-width="8"/>
<ellipse rx="7.70579" ry="7.76906" transform="matrix(-0.71513 0.698992 -0.77242 -0.635113 1113.11 266.654)" fill="#E25C5D"/>
<ellipse rx="7.70579" ry="7.76906" transform="matrix(-0.71513 0.698992 -0.77242 -0.635113 526.289 416.515)" fill="#F7B93E"/>
<ellipse rx="7.31235" ry="8.14046" transform="matrix(-0.108878 -0.994055 0.996053 -0.0887624 54.4201 374.082)" fill="#C53DC5"/>
<path d="M1196.1 126.113L1209.86 122.292L1205.61 109.957L1219.38 106.136L1215.13 93.8005L1228.89 89.9793" stroke="#E25C5D" stroke-width="8" stroke-linecap="round" stroke-linejoin="round"/>
<path d="M60.2912 106.517L74.0544 102.696L69.809 90.3609L83.5722 86.5397L79.3268 74.2045L93.09 70.3833" stroke="#E25C5D" stroke-width="8" stroke-linecap="round" stroke-linejoin="round"/>
<path d="M-38.4266 274.842L-32.5118 286.61L-19.3792 281.293L-13.4644 293.061L-0.331805 287.744L5.58299 299.512" stroke="#C53DC5" stroke-width="8" stroke-linecap="round" stroke-linejoin="round"/>
<path d="M656.803 377.735L662.718 389.503L675.85 384.186L681.765 395.954L694.898 390.637L700.812 402.405" stroke="#C53DC5" stroke-width="8" stroke-linecap="round" stroke-linejoin="round"/>
<path d="M1235.61 252L1241.52 263.768L1254.66 258.451L1260.57 270.219L1273.7 264.901L1279.62 276.669" stroke="#3D81F5" stroke-width="8" stroke-linecap="round" stroke-linejoin="round"/>
<path d="M1069.69 415.714L1077.48 426.568L1089.6 419.572L1097.39 430.426L1109.5 423.43L1117.29 434.284" stroke="#C53DC5" stroke-width="8" stroke-linecap="round" stroke-linejoin="round"/>
<path d="M143.845 316.137L146.284 303.407L132.089 301.236L134.528 288.507L120.333 286.335L122.772 273.606" stroke="#F7B93E" stroke-width="8" stroke-linecap="round" stroke-linejoin="round"/>
<path d="M22.027 61.3302C17.3499 61.0482 12.8213 59.7487 8.83279 57.5442C4.84432 55.3396 1.51617 52.2963 -0.863761 48.6776C-3.24369 45.0589 -4.60372 40.9737 -4.82619 36.7755C-5.04866 32.5773 -4.12687 28.3925 -2.14057 24.5831" stroke="#C53DC5" stroke-width="8"/>
<path d="M9.63707 419.627C11.4029 423.519 12.0841 427.739 11.6217 431.922C11.1593 436.105 9.56719 440.125 6.98319 443.635C4.39918 447.145 0.901067 450.039 -3.20854 452.066C-7.31815 454.093 -11.9155 455.192 -16.6028 455.268" stroke="#F7B93E" stroke-width="8"/>
<path d="M1204.57 282.166C1206.33 286.058 1207.01 290.278 1206.55 294.461C1206.09 298.644 1204.5 302.665 1201.91 306.175C1199.33 309.685 1195.83 312.578 1191.72 314.605C1187.61 316.632 1183.01 317.731 1178.33 317.808" stroke="#F7B93E" stroke-width="8"/>
<path d="M1221.43 417.118C1223.13 413.202 1225.88 409.716 1229.42 406.962C1232.97 404.209 1237.21 402.27 1241.78 401.314C1246.34 400.359 1251.1 400.415 1255.63 401.477C1260.17 402.54 1264.34 404.578 1267.8 407.414" stroke="#E25C5D" stroke-width="8"/>
<path d="M152.652 398.995C156.893 400.782 160.583 403.469 163.404 406.824C166.224 410.178 168.089 414.099 168.839 418.247C169.588 422.396 169.198 426.646 167.704 430.632C166.209 434.617 163.654 438.217 160.26 441.121" stroke="#E25C5D" stroke-width="8"/>
<path d="M106.975 408.584L117.647 427.582C120.643 432.915 116.789 439.5 110.672 439.5H89.3278C83.2112 439.5 79.3573 432.915 82.3529 427.582L93.0251 408.584C96.0825 403.141 103.918 403.141 106.975 408.584Z" stroke="#F7B93E" stroke-width="8"/>
<path d="M1064.02 300.474L1090.99 323.935C1093.3 325.942 1092.59 329.691 1089.71 330.72L1056.74 342.498C1053.86 343.527 1050.94 341.074 1051.45 338.059L1057.45 302.821C1057.98 299.744 1061.67 298.426 1064.02 300.474Z" stroke="#F7B93E" stroke-width="8"/>
<rect x="226.57" y="303.998" width="35" height="35" rx="6" transform="rotate(18.6052 226.57 303.998)" stroke="#3D81F5" stroke-width="8"/>
<rect x="55.1666" y="202" width="35" height="35" rx="6" transform="rotate(18.6052 55.1666 202)" stroke="#C53DC5" stroke-width="8"/>
<rect x="961.167" y="263" width="35" height="35" rx="6" transform="rotate(18.6052 961.167 263)" stroke="#3D81F5" stroke-width="8"/>
</g>
<defs>
<clipPath id="clip0">
<rect width="1280" height="427" fill="white"/>
</clipPath>
</defs>
</svg>
