<svg width="1280" height="427" viewBox="0 0 1280 427" fill="none" xmlns="http://www.w3.org/2000/svg">
<g clip-path="url(#clip0)">
<rect width="1280" height="427" fill="#1A2A34"/>
<path d="M853.714 411.369L855.095 424.222L869.432 422.968L870.813 435.82L885.15 434.566L886.531 447.418" stroke="#E25C5D" stroke-width="8" stroke-linecap="round" stroke-linejoin="round"/>
<path d="M640.877 434.974L628.104 432.985L625.609 447.158L612.836 445.17L610.341 459.343L597.569 457.355" stroke="#E25C5D" stroke-width="8" stroke-linecap="round" stroke-linejoin="round"/>
<path d="M444.34 454.987C439.774 455.943 435.017 455.888 430.483 454.825C425.949 453.763 421.773 451.726 418.316 448.89C414.86 446.054 412.227 442.505 410.645 438.55C409.064 434.595 408.582 430.353 409.24 426.19" stroke="#F7B93E" stroke-width="8"/>
<path d="M975.852 410.718C973.582 401.875 979.74 393.046 989.606 391C999.473 388.954 1009.31 394.464 1011.58 403.308C1013.85 412.151 1007.7 420.98 997.829 423.026C987.962 425.073 978.123 419.562 975.852 410.718Z" stroke="#F7B93E" stroke-width="8"/>
<ellipse rx="18.2454" ry="16.5324" transform="matrix(-0.979161 0.203086 -0.248681 -0.968585 770.916 430.279)" stroke="#F7B93E" stroke-width="8"/>
<ellipse rx="18.2454" ry="16.5324" transform="matrix(-0.979161 0.203086 -0.248681 -0.968585 167.588 235.755)" stroke="#E25C5D" stroke-width="8"/>
<ellipse rx="18.2454" ry="16.5324" transform="matrix(-0.979161 0.203086 -0.248681 -0.968585 806.976 312.718)" stroke="#3D81F5" stroke-width="8"/>
<ellipse rx="7.43475" ry="8.02882" transform="matrix(-0.425493 -0.904962 0.935143 -0.35427 1133.55 369.588)" fill="#F7B93E"/>
<ellipse rx="17.6043" ry="17.2135" transform="matrix(0.80553 -0.592555 0.674922 0.737889 1109.82 163.781)" stroke="#C53DC5" stroke-width="8"/>
<ellipse rx="16.8764" ry="17.9278" transform="matrix(-0.51706 -0.855949 0.899283 -0.437367 2.76691 182.159)" stroke="#F7B93E" stroke-width="8"/>
<ellipse rx="16.8764" ry="17.9278" transform="matrix(-0.51706 -0.855949 0.899283 -0.437367 1278.28 27.4608)" stroke="#E25C5D" stroke-width="8"/>
<ellipse rx="16.8764" ry="17.9278" transform="matrix(-0.51706 -0.855949 0.899283 -0.437367 522.808 348.277)" stroke="#E25C5D" stroke-width="8"/>
<ellipse rx="7.97656" ry="7.49079" transform="matrix(-0.9093 -0.416141 0.495409 -0.86866 306.963 257.569)" fill="#F7B93E"/>
<ellipse rx="7.97656" ry="7.49079" transform="matrix(-0.9093 -0.416141 0.495409 -0.86866 414.835 365.333)" fill="#E25C5D"/>
<ellipse rx="7.88712" ry="7.58491" transform="matrix(0.85442 0.519583 -0.603679 0.797227 1266.45 213.623)" fill="#C53DC5"/>
<ellipse rx="7.88712" ry="7.58491" transform="matrix(0.85442 0.519583 -0.603679 0.797227 934.072 395.036)" fill="#C53DC5"/>
<ellipse rx="18.2648" ry="16.511" transform="matrix(0.983754 -0.179521 0.220187 0.975458 282.919 396.777)" stroke="#C53DC5" stroke-width="8"/>
<ellipse rx="7.70579" ry="7.76906" transform="matrix(-0.71513 0.698992 -0.77242 -0.635113 1113.11 266.654)" fill="#E25C5D"/>
<ellipse rx="7.70579" ry="7.76906" transform="matrix(-0.71513 0.698992 -0.77242 -0.635113 526.289 416.515)" fill="#F7B93E"/>
<ellipse rx="7.31235" ry="8.14046" transform="matrix(-0.108878 -0.994055 0.996053 -0.0887624 54.4201 374.082)" fill="#C53DC5"/>
<path d="M1196.1 126.113L1209.86 122.292L1205.61 109.957L1219.38 106.136L1215.13 93.8005L1228.89 89.9793" stroke="#E25C5D" stroke-width="8" stroke-linecap="round" stroke-linejoin="round"/>
<path d="M60.2912 106.517L74.0544 102.696L69.809 90.3609L83.5722 86.5397L79.3268 74.2045L93.09 70.3833" stroke="#E25C5D" stroke-width="8" stroke-linecap="round" stroke-linejoin="round"/>
<path d="M-38.4266 274.842L-32.5118 286.61L-19.3792 281.293L-13.4644 293.061L-0.331805 287.744L5.58299 299.512" stroke="#C53DC5" stroke-width="8" stroke-linecap="round" stroke-linejoin="round"/>
<path d="M656.803 377.735L662.718 389.503L675.85 384.186L681.765 395.954L694.898 390.637L700.812 402.405" stroke="#C53DC5" stroke-width="8" stroke-linecap="round" stroke-linejoin="round"/>
<path d="M1235.61 252L1241.52 263.768L1254.66 258.451L1260.57 270.219L1273.7 264.901L1279.62 276.669" stroke="#3D81F5" stroke-width="8" stroke-linecap="round" stroke-linejoin="round"/>
<path d="M1069.69 415.714L1077.48 426.568L1089.6 419.572L1097.39 430.426L1109.5 423.43L1117.29 434.284" stroke="#C53DC5" stroke-width="8" stroke-linecap="round" stroke-linejoin="round"/>
<path d="M143.845 316.137L146.284 303.407L132.089 301.236L134.528 288.507L120.333 286.335L122.772 273.606" stroke="#F7B93E" stroke-width="8" stroke-linecap="round" stroke-linejoin="round"/>
<path d="M22.027 61.3302C17.3499 61.0482 12.8213 59.7487 8.83279 57.5442C4.84432 55.3396 1.51617 52.2963 -0.863761 48.6776C-3.24369 45.0589 -4.60372 40.9737 -4.82619 36.7755C-5.04866 32.5773 -4.12687 28.3925 -2.14057 24.5831" stroke="#C53DC5" stroke-width="8"/>
<path d="M9.63707 419.627C11.4029 423.519 12.0841 427.739 11.6217 431.922C11.1593 436.105 9.56719 440.125 6.98319 443.635C4.39918 447.145 0.901067 450.039 -3.20854 452.066C-7.31815 454.093 -11.9155 455.192 -16.6028 455.268" stroke="#F7B93E" stroke-width="8"/>
<path d="M1204.57 282.166C1206.33 286.058 1207.01 290.278 1206.55 294.461C1206.09 298.644 1204.5 302.665 1201.91 306.175C1199.33 309.685 1195.83 312.578 1191.72 314.605C1187.61 316.632 1183.01 317.731 1178.33 317.808" stroke="#F7B93E" stroke-width="8"/>
<path d="M1221.43 417.118C1223.13 413.202 1225.88 409.716 1229.42 406.962C1232.97 404.209 1237.21 402.27 1241.78 401.314C1246.34 400.359 1251.1 400.415 1255.63 401.477C1260.17 402.54 1264.34 404.578 1267.8 407.414" stroke="#E25C5D" stroke-width="8"/>
<path d="M152.652 398.995C156.893 400.782 160.583 403.469 163.404 406.824C166.224 410.178 168.089 414.099 168.839 418.247C169.588 422.396 169.198 426.646 167.704 430.632C166.209 434.617 163.654 438.217 160.26 441.121" stroke="#E25C5D" stroke-width="8"/>
<path d="M106.975 408.584L117.647 427.582C120.643 432.915 116.789 439.5 110.672 439.5H89.3278C83.2112 439.5 79.3573 432.915 82.3529 427.582L93.0251 408.584C96.0825 403.141 103.918 403.141 106.975 408.584Z" stroke="#F7B93E" stroke-width="8"/>
<path d="M1064.02 300.474L1090.99 323.935C1093.3 325.942 1092.59 329.691 1089.71 330.72L1056.74 342.498C1053.86 343.527 1050.94 341.074 1051.45 338.059L1057.45 302.821C1057.98 299.744 1061.67 298.426 1064.02 300.474Z" stroke="#F7B93E" stroke-width="8"/>
<rect x="226.57" y="303.998" width="35" height="35" rx="6" transform="rotate(18.6052 226.57 303.998)" stroke="#3D81F5" stroke-width="8"/>
<rect x="55.1666" y="202" width="35" height="35" rx="6" transform="rotate(18.6052 55.1666 202)" stroke="#C53DC5" stroke-width="8"/>
<rect x="961.167" y="263" width="35" height="35" rx="6" transform="rotate(18.6052 961.167 263)" stroke="#3D81F5" stroke-width="8"/>
<path d="M438.133 195.18H428.797V216H417.078V159.125H438.211C444.93 159.125 450.112 160.622 453.758 163.617C457.404 166.612 459.227 170.844 459.227 176.312C459.227 180.193 458.38 183.435 456.688 186.039C455.021 188.617 452.482 190.674 449.07 192.211L461.375 215.453V216H448.797L438.133 195.18ZM428.797 185.688H438.25C441.193 185.688 443.471 184.945 445.086 183.461C446.701 181.951 447.508 179.88 447.508 177.25C447.508 174.568 446.74 172.458 445.203 170.922C443.693 169.385 441.362 168.617 438.211 168.617H428.797V185.688ZM502.391 191.352H479.891V206.586H506.297V216H468.172V159.125H506.219V168.617H479.891V182.172H502.391V191.352ZM545.281 204.281H524.734L520.828 216H508.367L529.539 159.125H540.398L561.688 216H549.227L545.281 204.281ZM527.898 194.789H542.117L534.969 173.5L527.898 194.789ZM567 216V159.125H584.5C589.5 159.125 593.966 160.258 597.898 162.523C601.857 164.763 604.943 167.966 607.156 172.133C609.37 176.273 610.477 180.987 610.477 186.273V188.891C610.477 194.177 609.383 198.878 607.195 202.992C605.034 207.107 601.974 210.297 598.016 212.562C594.057 214.828 589.591 215.974 584.617 216H567ZM578.719 168.617V206.586H584.383C588.966 206.586 592.469 205.089 594.891 202.094C597.312 199.099 598.549 194.815 598.602 189.242V186.234C598.602 180.453 597.404 176.078 595.008 173.109C592.612 170.115 589.109 168.617 584.5 168.617H578.719ZM634.344 159.125L648.953 200.375L663.484 159.125H678.875V216H667.117V200.453L668.289 173.617L652.938 216H644.891L629.578 173.656L630.75 200.453V216H619.031V159.125H634.344ZM723.328 191.352H700.828V206.586H727.234V216H689.109V159.125H727.156V168.617H700.828V182.172H723.328V191.352ZM733.953 210.453C733.953 208.656 734.552 207.198 735.75 206.078C736.974 204.958 738.497 204.398 740.32 204.398C742.169 204.398 743.693 204.958 744.891 206.078C746.115 207.198 746.727 208.656 746.727 210.453C746.727 212.224 746.128 213.669 744.93 214.789C743.732 215.883 742.195 216.43 740.32 216.43C738.471 216.43 736.948 215.883 735.75 214.789C734.552 213.669 733.953 212.224 733.953 210.453ZM767.234 173.734L767.586 178.461C770.581 174.789 774.63 172.953 779.734 172.953C785.177 172.953 788.914 175.102 790.945 179.398C793.914 175.102 798.146 172.953 803.641 172.953C808.224 172.953 811.635 174.294 813.875 176.977C816.115 179.633 817.234 183.643 817.234 189.008V216H805.906V189.047C805.906 186.651 805.438 184.906 804.5 183.812C803.562 182.693 801.909 182.133 799.539 182.133C796.154 182.133 793.81 183.747 792.508 186.977L792.547 216H781.258V189.086C781.258 186.638 780.776 184.867 779.812 183.773C778.849 182.68 777.208 182.133 774.891 182.133C771.688 182.133 769.37 183.461 767.938 186.117V216H756.648V173.734H767.234ZM824.188 194.555C824.188 187.966 825.659 182.719 828.602 178.812C831.57 174.906 835.62 172.953 840.75 172.953C844.865 172.953 848.263 174.49 850.945 177.562V156H862.273V216H852.078L851.531 211.508C848.719 215.023 845.099 216.781 840.672 216.781C835.698 216.781 831.701 214.828 828.68 210.922C825.685 206.99 824.188 201.534 824.188 194.555ZM835.477 195.375C835.477 199.333 836.167 202.367 837.547 204.477C838.927 206.586 840.932 207.641 843.562 207.641C847.052 207.641 849.513 206.169 850.945 203.227V186.547C849.539 183.604 847.104 182.133 843.641 182.133C838.198 182.133 835.477 186.547 835.477 195.375Z" fill="white"/>
</g>
<defs>
<clipPath id="clip0">
<rect width="1280" height="427" fill="white"/>
</clipPath>
</defs>
</svg>
