<svg width="1283" height="925" viewBox="0 0 1283 925" fill="none" xmlns="http://www.w3.org/2000/svg">
<rect width="1283" height="925" fill="#1A2A34"/>
<g clip-path="url(#clip0)">
<rect width="1280" height="427" transform="translate(0 498)" fill="#1A2A34"/>
<path d="M853.714 909.369L855.095 922.222L869.432 920.968L870.813 933.82L885.15 932.566L886.531 945.418" stroke="#E25C5D" stroke-width="8" stroke-linecap="round" stroke-linejoin="round"/>
<path d="M640.877 932.974L628.104 930.985L625.609 945.158L612.836 943.17L610.341 957.343L597.569 955.355" stroke="#E25C5D" stroke-width="8" stroke-linecap="round" stroke-linejoin="round"/>
<path d="M444.34 952.987C439.774 953.943 435.017 953.888 430.483 952.825C425.949 951.763 421.773 949.726 418.316 946.89C414.86 944.054 412.227 940.505 410.646 936.55C409.064 932.595 408.582 928.353 409.24 924.19" stroke="#F7B93E" stroke-width="8"/>
<path d="M975.852 908.719C973.582 899.875 979.74 891.046 989.606 889C999.473 886.954 1009.31 892.464 1011.58 901.308C1013.85 910.152 1007.7 918.98 997.829 921.026C987.962 923.073 978.123 917.562 975.852 908.719Z" stroke="#F7B93E" stroke-width="8"/>
<ellipse rx="18.2454" ry="16.5324" transform="matrix(-0.979161 0.203086 -0.248681 -0.968585 770.916 928.279)" stroke="#F7B93E" stroke-width="8"/>
<ellipse rx="18.2454" ry="16.5324" transform="matrix(-0.979161 0.203086 -0.248681 -0.968585 167.588 733.755)" stroke="#E25C5D" stroke-width="8"/>
<ellipse rx="18.2454" ry="16.5324" transform="matrix(-0.979161 0.203086 -0.248681 -0.968585 806.976 810.718)" stroke="#3D81F5" stroke-width="8"/>
<ellipse rx="7.43475" ry="8.02882" transform="matrix(-0.425493 -0.904962 0.935143 -0.35427 1133.55 867.588)" fill="#F7B93E"/>
<ellipse rx="17.6043" ry="17.2135" transform="matrix(0.80553 -0.592555 0.674922 0.737889 1109.82 661.781)" stroke="#C53DC5" stroke-width="8"/>
<ellipse rx="16.8764" ry="17.9278" transform="matrix(-0.51706 -0.855949 0.899283 -0.437367 2.76691 680.159)" stroke="#F7B93E" stroke-width="8"/>
<ellipse rx="16.8764" ry="17.9278" transform="matrix(-0.51706 -0.855949 0.899283 -0.437367 1278.28 525.461)" stroke="#E25C5D" stroke-width="8"/>
<ellipse rx="16.8764" ry="17.9278" transform="matrix(-0.51706 -0.855949 0.899283 -0.437367 522.808 846.277)" stroke="#E25C5D" stroke-width="8"/>
<ellipse rx="7.97656" ry="7.49079" transform="matrix(-0.9093 -0.416141 0.495409 -0.86866 306.963 755.569)" fill="#F7B93E"/>
<ellipse rx="7.97656" ry="7.49079" transform="matrix(-0.9093 -0.416141 0.495409 -0.86866 414.835 863.333)" fill="#E25C5D"/>
<ellipse rx="7.88712" ry="7.58491" transform="matrix(0.85442 0.519583 -0.603679 0.797227 1266.45 711.623)" fill="#C53DC5"/>
<ellipse rx="7.88712" ry="7.58491" transform="matrix(0.85442 0.519583 -0.603679 0.797227 934.072 893.036)" fill="#C53DC5"/>
<ellipse rx="18.2648" ry="16.511" transform="matrix(0.983754 -0.179521 0.220187 0.975458 282.919 894.777)" stroke="#C53DC5" stroke-width="8"/>
<ellipse rx="7.70579" ry="7.76906" transform="matrix(-0.71513 0.698992 -0.77242 -0.635113 1113.11 764.654)" fill="#E25C5D"/>
<ellipse rx="7.70579" ry="7.76906" transform="matrix(-0.71513 0.698992 -0.77242 -0.635113 526.289 914.515)" fill="#F7B93E"/>
<ellipse rx="7.31235" ry="8.14046" transform="matrix(-0.108878 -0.994055 0.996053 -0.0887624 54.4201 872.082)" fill="#C53DC5"/>
<path d="M1196.1 624.113L1209.86 620.292L1205.61 607.957L1219.38 604.136L1215.13 591.801L1228.89 587.979" stroke="#E25C5D" stroke-width="8" stroke-linecap="round" stroke-linejoin="round"/>
<path d="M60.2912 604.517L74.0544 600.696L69.809 588.361L83.5722 584.54L79.3268 572.204L93.09 568.383" stroke="#E25C5D" stroke-width="8" stroke-linecap="round" stroke-linejoin="round"/>
<path d="M-38.4266 772.842L-32.5118 784.61L-19.3792 779.293L-13.4644 791.061L-0.331805 785.744L5.58299 797.512" stroke="#C53DC5" stroke-width="8" stroke-linecap="round" stroke-linejoin="round"/>
<path d="M656.803 875.735L662.718 887.503L675.85 882.186L681.765 893.954L694.898 888.637L700.812 900.405" stroke="#C53DC5" stroke-width="8" stroke-linecap="round" stroke-linejoin="round"/>
<path d="M1235.61 750L1241.52 761.768L1254.66 756.451L1260.57 768.219L1273.7 762.901L1279.62 774.669" stroke="#3D81F5" stroke-width="8" stroke-linecap="round" stroke-linejoin="round"/>
<path d="M1069.69 913.714L1077.48 924.568L1089.6 917.572L1097.39 928.426L1109.5 921.43L1117.29 932.284" stroke="#C53DC5" stroke-width="8" stroke-linecap="round" stroke-linejoin="round"/>
<path d="M143.845 814.137L146.284 801.407L132.089 799.236L134.528 786.507L120.333 784.335L122.772 771.606" stroke="#F7B93E" stroke-width="8" stroke-linecap="round" stroke-linejoin="round"/>
<path d="M22.027 559.33C17.3499 559.048 12.8213 557.749 8.83279 555.544C4.84432 553.34 1.51617 550.296 -0.863761 546.678C-3.24369 543.059 -4.60372 538.974 -4.82619 534.776C-5.04866 530.577 -4.12687 526.393 -2.14057 522.583" stroke="#C53DC5" stroke-width="8"/>
<path d="M9.63707 917.627C11.4029 921.519 12.0841 925.739 11.6217 929.922C11.1593 934.105 9.56719 938.125 6.98319 941.635C4.39918 945.145 0.901067 948.039 -3.20854 950.066C-7.31815 952.093 -11.9155 953.192 -16.6028 953.268" stroke="#F7B93E" stroke-width="8"/>
<path d="M1204.57 780.166C1206.33 784.058 1207.01 788.278 1206.55 792.461C1206.09 796.644 1204.5 800.665 1201.91 804.175C1199.33 807.685 1195.83 810.578 1191.72 812.605C1187.61 814.632 1183.01 815.731 1178.33 815.808" stroke="#F7B93E" stroke-width="8"/>
<path d="M1221.43 915.118C1223.13 911.202 1225.88 907.716 1229.42 904.962C1232.97 902.209 1237.21 900.27 1241.78 899.314C1246.34 898.359 1251.1 898.415 1255.63 899.477C1260.17 900.54 1264.34 902.578 1267.8 905.414" stroke="#E25C5D" stroke-width="8"/>
<path d="M152.652 896.995C156.893 898.782 160.583 901.469 163.404 904.824C166.224 908.178 168.089 912.099 168.839 916.247C169.588 920.396 169.198 924.646 167.704 928.632C166.209 932.617 163.654 936.217 160.26 939.121" stroke="#E25C5D" stroke-width="8"/>
<path d="M106.975 906.584L117.647 925.582C120.643 930.915 116.789 937.5 110.672 937.5H89.3278C83.2112 937.5 79.3573 930.915 82.3529 925.582L93.0251 906.584C96.0825 901.141 103.918 901.141 106.975 906.584Z" stroke="#F7B93E" stroke-width="8"/>
<path d="M1064.02 798.474L1090.99 821.935C1093.3 823.942 1092.59 827.691 1089.71 828.72L1056.74 840.498C1053.86 841.527 1050.94 839.074 1051.45 836.059L1057.45 800.821C1057.98 797.744 1061.67 796.426 1064.02 798.474Z" stroke="#F7B93E" stroke-width="8"/>
<rect x="226.57" y="801.998" width="35" height="35" rx="6" transform="rotate(18.6052 226.57 801.998)" stroke="#3D81F5" stroke-width="8"/>
<rect x="55.1666" y="700" width="35" height="35" rx="6" transform="rotate(18.6052 55.1666 700)" stroke="#C53DC5" stroke-width="8"/>
<rect x="961.167" y="761" width="35" height="35" rx="6" transform="rotate(18.6052 961.167 761)" stroke="#3D81F5" stroke-width="8"/>
</g>
<defs>
<clipPath id="clip0">
<rect width="1280" height="427" fill="white" transform="translate(0 498)"/>
</clipPath>
</defs>
</svg>
